# xmcd
#
# Track frame offsets:
#	150
#	13469
#	24684
#	34753
#	46946
#	57346
#	69364
#	81899
#	94254
#	106728
#
# Disc length: 1604 seconds
#
# Revision: 0
# Processed by: cddbd v1.5.1PL0 Copyright (c) Steve Scherf et al.
# Submitted via: dBpowerAMP V4.0
#
DISCID=7e06420a
DTITLE=Hank Williams - Hey Good Lookin'
DYEAR=2005
DGENRE=Country
TTITLE0=Hey Good Lookin'
TTITLE1=I Heard That Lonsome Whistle
TTITLE2=Honky Tonk Blues
TTITLE3=Take These Chains From My Heart
TTITLE4=Please Don't Let Me Love You
TTITLE5=Weary Blues From Waitin'
TTITLE6=My Sweet Love Ain't Around
TTITLE7=There'll Be No Teardrops Tonight
TTITLE8=(Last NIght) I Heard You Crying In Your Sleep
TTITLE9=A Mansion On The Hill
EXTD=
EXTT0=
EXTT1=
EXTT2=
EXTT3=
EXTT4=
EXTT5=
EXTT6=
EXTT7=
EXTT8=
EXTT9=
PLAYORDER=
